<svg width="145" height="40" xmlns="http://www.w3.org/2000/svg"><g fill="none" fill-rule="evenodd"><path d="M145 35.9903685C145 38.2056114 143.133346 40 140.824533 40H4.1809121C1.8731881 40 0 38.2056114 0 35.9903685V4.014866C0 1.80067 1.873188 0 4.1809121 0H140.823444c2.309902 0 4.175467 1.80067 4.175467 4.014866L145 35.9903685z" fill="#FFF"/><g fill="#434340"><path d="M38.9713633 20.7408882c-.0247481-2.7452758 2.2520727-4.0808615 2.3561852-4.1430412-1.2894588-1.8764638-3.2880774-2.1328485-3.99041-2.1532912-1.6786006-.1763177-3.3068518 1.002541-4.1619396 1.002541-.8721555 0-2.1889225-.9855054-3.6080953-.956545-1.8262355.0281086-3.5347045 1.0834598-4.471717 2.7222779-1.9337615 3.3415195-.4915474 8.2520114 1.361143 10.9529949.9267718 1.322809 2.0097124 2.7997896 3.4271784 2.7478312 1.3867443-.057069 1.9047466-.8824405 3.578227-.8824405 1.6581194 0 2.1445466.8824405 3.5901742.8492212 1.4882966-.0238497 2.4253091-1.3287714 3.3196525-2.6635053 1.0709932-1.5161623 1.5010973-3.0093266 1.5181649-3.0859865-.0349886-.0119249-2.8904017-1.0996436-2.9185633-4.3900565zM36.2405438 12.66775c.7458551-.9309919 1.256177-2.1975836 1.1145157-3.4829145-1.0795271.0476995-2.429576.7453045-3.2070062 1.6558537-.6878251.8023735-1.3022595 2.1175165-1.1435306 3.3542961 1.2126545.0902883 2.4577375-.6107238 3.2360211-1.5272354zM59.0936633 30.5023908h-1.9380285l-1.0616061-3.3295946h-3.6900199l-1.0112565 3.3295946h-1.8868257l3.6558847-11.3354426h2.2580463l3.6738057 11.3354426zm-3.3196525-4.7265082l-.9600537-2.9599236c-.1015524-.3023806-.2918564-1.0144659-.5726188-2.1354038h-.0341352c-.111793.4821055-.2918563 1.1941907-.5393368 2.1354038l-.9429862 2.9599236h3.0491307zM68.4953628 26.3150572c0 1.3900994-.3763411 2.4888911-1.1290232 3.2955235-.6741711.7180477-1.5113379 1.0766456-2.5106472 1.0766456-1.0786737 0-1.8535437-.3867065-2.3254635-1.1601197h-.0341352v4.3057306h-1.8194085V25.019505c0-.8739227-.0230413-1.7708435-.0674171-2.6907622h1.6000895l.1015524 1.2955522h.0341352c.606754-.976136 1.5275522-1.4633521 2.763248-1.4633521.9660274 0 1.7724726.380744 2.4176287 1.1430841.6468628.7631918.9694409 1.7665846.9694409 3.0110302zm-1.8535438.0664386c0-.7955594-.17921-1.4514273-.5393368-1.967604-.3934087-.5383227-.9216516-.8074841-1.5838753-.8074841-.4488785 0-.8567946.1499127-1.2211884.4454791-.3652471.2981218-.6041938.6873837-.7159867 1.1694893-.0563232.224869-.0844847.4088527-.0844847.5536547v1.3628426c0 .59454.1826235 1.0962364.5478706 1.505941.3652471.4097045.839727.6141308 1.4234397.6141308.685265 0 1.2186282-.2640507 1.6000895-.7904486.3823148-.5272497.5734721-1.2222994.5734721-2.0860008zM77.9141299 26.3150572c0 1.3900994-.376341 2.4888911-1.1298765 3.2955235-.6733177.7180477-1.5104846 1.0766456-2.5097938 1.0766456-1.0786737 0-1.8535438-.3867065-2.3246101-1.1601197h-.0341353v4.3057306h-1.8194085V25.019505c0-.8739227-.0230413-1.7708435-.0674171-2.6907622h1.6000896l.1015523 1.2955522h.0341353c.6059005-.976136 1.5266987-1.4633521 2.763248-1.4633521.965174 0 1.7716191.380744 2.418482 1.1430841.6443027.7631918.9677341 1.7665846.9677341 3.0110302zm-1.8535437.0664386c0-.7955594-.1800634-1.4514273-.5401902-1.967604-.3934087-.5383227-.9199449-.8074841-1.583022-.8074841-.4497318 0-.8567946.1499127-1.2220417.4454791-.3652471.2981218-.6033404.6873837-.7151334 1.1694893-.0554697.224869-.0844847.4088527-.0844847.5536547v1.3628426c0 .59454.1826236 1.0962364.5461639 1.505941.3652471.4088527.839727.6141308 1.4251464.6141308.6852651 0 1.2186283-.2640507 1.6000896-.7904486.3823147-.5272497.5734721-1.2222994.5734721-2.0860008zM88.4448527 27.3235606c0 .9642111-.3353788 1.7486973-1.0086965 2.3543105-.7398814.6618304-1.7699124.9923197-3.0935065.9923197-1.2220417 0-2.2017232-.2350903-2.9433114-.7061228l.4215703-1.513607c.7987647.4821056 1.6751871.7240101 2.6301205.7240101.6852651 0 1.2186282-.1550233 1.6017963-.4633664.3814614-.3083431.5717654-.7223066.5717654-1.2384832 0-.4599593-.1570221-.8475176-.4719198-1.1618232-.3131908-.3143055-.8363134-.606465-1.5668077-.876478-1.9883779-.740194-2.9817135-1.8245055-2.9817135-3.2503795 0-.9318435.3481795-1.6958871 1.0453918-2.2904272.6946523-.5953918 1.6214241-.8926618 2.7803156-.8926618 1.0334446 0 1.8919459.1797248 2.577211.5383228l-.4548522 1.4803877c-.6400358-.3475249-1.363703-.5212873-2.1735616-.5212873-.6400358 0-1.1401172.1575787-1.4985372.4710324-.3029503.2802345-.4548521.621797-.4548521 1.0263908 0 .4480345.1732363.8185573.5214158 1.1098649.3029503.2691614.8533811.560469 1.6521458.8747745.9771214.392669 1.6948149.8517766 2.156494 1.3781745.4599724.5246944.689532 1.1814141.689532 1.9650486zM94.460336 23.6915854h-2.0054456v3.968427c0 1.0093552.3532998 1.513607 1.0616061 1.513607.3251382 0 .5948066-.0281087.8081519-.0843259l.0503495 1.3790262c-.3584201.133729-.8303398.2010193-1.4149059.2010193-.7185468 0-1.2800716-.2189066-1.6854276-.6558679-.4036493-.4378132-.606754-1.1720446-.606754-2.203546v-4.1200433h-1.1947335v-1.3628425h1.1947335v-1.4965715l1.78698-.5383227v2.0348942h2.0054456v1.364546zM103.5087358 26.3482765c0 1.2563704-.3601269 2.2878718-1.0786737 3.0945043-.7535356.8304821-1.7536982 1.2444455-3.000488 1.2444455-1.2015606 0-2.1582008-.3977796-2.8716274-1.193339-.7134266-.7955593-1.0701399-1.7998038-1.0701399-3.0101783 0-1.2665918.3669539-2.3040557 1.1034218-3.110688.7347611-.8074843 1.72639-1.2112264 2.9731797-1.2112264 1.2015606 0 2.1684414.3977797 2.8980822 1.1941908.6980658.7725613 1.0462453 1.7699917 1.0462453 2.992291zm-1.887679.0587726c0-.7538223-.161289-1.4003207-.488134-1.9394953-.3814614-.6524608-.9267719-.9778395-1.6333714-.9778395-.7313476 0-1.2868987.3262304-1.6683601.9778395-.3268449.5400264-.488134 1.196746-.488134 1.9735663 0 .7538223.1612891 1.4003207.488134 1.9386435.3934087.6524608.9429861.9778395 1.6521458.9778395.6946522 0 1.2399628-.3321929 1.6333715-.994875.3353787-.549396.5043482-1.2027086.5043482-1.955679zM109.4226668 23.925824c-.1800635-.0332194-.3720742-.050255-.5734721-.050255-.6400359 0-1.1349969.2410529-1.4831764.7240102-.3029503.4258883-.4548521.964211-.4548521 1.6141166v4.288695h-1.8185551l.0170676-5.5995792c0-.9420649-.0230413-1.7998039-.0682705-2.573217h1.5847287l.0665637 1.5638618h.0503495c.1920108-.537471.4949611-.9701735.9097043-1.2947004.405356-.2921594.8431405-.4378132 1.3150602-.4378132.1681161 0 .3200179.011925.4548522.0332193v1.7316618zM117.5596555 26.0288603c0 .3253786-.0213345.5996507-.0665637.8236679h-5.4582255c.0213345.8074842.2850293 1.4250222.7919376 1.8509105.4599725.3807441 1.0547791.5715421 1.7852733.5715421.8081519 0 1.5454732-.1286183 2.2085503-.3867066l.2850293 1.2606293c-.7748701.3373036-1.6896946.5051035-2.745327.5051035-1.2698311 0-2.2665802-.3730781-2.9919541-1.1183826-.7236672-.7453045-1.0863542-1.746142-1.0863542-3.0016606 0-1.2325207.3370856-2.2589115 1.01211-3.0774688.7065995-.8739227 1.661533-1.3108841 2.8630936-1.3108841 1.180226 0 2.073716.4369614 2.68047 1.3108841.4804536.694198.7219604 1.5527887.7219604 2.5723653zm-1.7349238-.4710325c.0119474-.5383228-.1066726-1.0033928-.3532997-1.3960618-.3148977-.5051035-.7987647-.7572293-1.4498945-.7572293-.5948066 0-1.0786737.2461634-1.4481877.7401938-.3029503.392669-.4830137.8637014-.5384835 1.4122455h3.7898654v.0008518z"/><g><path d="M55.7633254 12.1660784c0 1.002541-.3012435 1.757215-.9028772 2.2640221-.5572578.4676253-1.3491955.7018639-2.3749596.7018639-.5086151 0-.9438395-.0221462-1.3082332-.0664386V9.5877507c.4753333-.0766599.987362-.1158416 1.5403529-.1158416.9771213 0 1.7135892.2120924 2.210257.636277.5564045.4795503.8354601 1.1652304.8354601 2.0578923zm-.942986.0247015c0-.6499055-.172383-1.1481948-.517149-1.4957197-.344766-.346673-.8482609-.5204354-1.511338-.5204354-.2816157 0-.5214158.018739-.7202536.0579208v4.1643356c.1100862.0170356.3114841.0247015.6041938.0247015.6844116 0 1.2126545-.1899461 1.5847287-.5698385.3720742-.3798923.559818-.9335471.559818-1.6609643zM60.7632853 13.0417047c0 .617538-.17665 1.1234933-.5299497 1.5204212-.3703674.408001-.8610615.6115755-1.4737892.6115755-.5905397 0-1.0607527-.1950568-1.4114923-.586874-.3498862-.3909655-.5248294-.884144-.5248294-1.4786841 0-.621797.1800634-1.132011.541897-1.5280872.3618336-.3960761.8482608-.59454 1.4609885-.59454.5905397 0 1.0650196.1950568 1.424293.5860222.3413525.3798924.512882.8705157.512882 1.4701664zm-.9276253.0289604c0-.3705228-.0802178-.6882355-.2398-.953138-.187744-.320268-.4548522-.480402-.8021783-.480402-.3592735 0-.6323554.160134-.8200992.480402-.1604357.2649025-.2398001.5877258-.2398001.9693217 0 .3705229.0802178.6882355.2398.953138.1937176.320268.463386.480402.8115655.480402.3413524 0 .609314-.1626893.8021782-.4889197.165556-.2700132.248334-.5902812.248334-.960804zM67.4674471 11.0672866L66.20871 15.0825614h-.8192458l-.5214159-1.7435867c-.132274-.4352578-.2398001-.8679603-.3234314-1.2972557h-.0162142c-.0776577.4412203-.1851837.873071-.3234315 1.2972557l-.5538443 1.7435867h-.8286331l-1.1836395-4.0152748h.9190914l.4548521 1.9088313c.1100862.4514416.2005446.8815887.273082 1.288738h.0162142c.0665637-.3356.1766499-.7631919.3319653-1.2802202l.5709119-1.9164973h.7287875l.5470173 1.875612c.132274.457404.2398.8977725.322578 1.3219572h.0247481c.06059-.4131116.1519018-.8534801.2730819-1.3219572l.488134-1.875612h.8781291v-.0008518zM72.1038666 15.0825614h-.8943433v-2.2997968c0-.708678-.2696685-1.0630171-.8107121-1.0630171-.2654015 0-.4796002.0971025-.6460095.2921593-.1647025.1950569-.2483339.4250365-.2483339.6882355v2.3815673h-.8943434v-2.86708c0-.3526355-.0110939-.7350831-.0324284-1.1490466h.7859639l.0418157.6277594h.0247481c.1041125-.1950569.2594278-.3560426.4633859-.4846609.2423602-.1499127.5137354-.2257208.810712-.2257208.3754877 0 .6878252.1209523.9361591.3637086.308924.29727.4633859.7410456.4633859 1.330475v2.405417zM74.570138 15.0825614h-.89349V9.2248939h.89349zM79.8354994 13.0417047c0 .617538-.1766499 1.1234933-.5299497 1.5204212-.3703674.408001-.8619149.6115755-1.4737891.6115755-.5913931 0-1.0616061-.1950568-1.4114924-.586874-.3498862-.3909655-.5248294-.884144-.5248294-1.4786841 0-.621797.1800635-1.132011.541897-1.5280872.3618336-.3960761.8482609-.59454 1.4601351-.59454.5913931 0 1.0650196.1950568 1.4251464.5860222.3413525.3798924.5128821.8705157.5128821 1.4701664zm-.9284787.0289604c0-.3705228-.0802178-.6882355-.2398001-.953138-.1868904-.320268-.4548521-.480402-.8013248-.480402-.3601268 0-.6332088.160134-.8200992.480402-.1604357.2649025-.2398001.5877258-.2398001.9693217 0 .3705229.0802178.6882355.2398001.953138.1937175.320268.4633859.480402.8115654.480402.3413524 0 .6084607-.1626893.8013248-.4889197.1664093-.2700132.2483339-.5902812.2483339-.960804zM84.1638483 15.0825614h-.8030316l-.0665638-.4625147h-.024748c-.2747887.3688192-.6664906.5536548-1.1751058.5536548-.3797546 0-.6869718-.1218041-.918238-.3637086-.2099318-.2197584-.3148977-.4931787-.3148977-.8177056 0-.4906233.2048115-.8645532.6169946-1.1234933.4113297-.25894.989922-.3858547 1.7349237-.3798923v-.0749563c0-.5289533-.2782022-.793004-.83546-.793004-.3968223 0-.7467085.0996578-1.0488054.29727l-.1817702-.5860223c.3737809-.2308314.8354601-.346673 1.3799172-.346673 1.0513656 0 1.5787551.5536547 1.5787551 1.6609643v1.478684c0 .4011869.0196277.720603.0580299.957397zm-.9284786-1.379878v-.6192416c-.9865086-.0170356-1.4797629.2529776-1.4797629.8091877 0 .209537.0563232.366264.1715296.4710324.1152065.1047686.261988.156727.4369312.156727.1962776 0 .3797545-.0621798.5470172-.1856874.1681161-.1243593.2713752-.281938.3097774-.4752913.0093872-.0434406.0145075-.0962508.0145075-.1567269zM89.2457327 15.0825614h-.7936444l-.0418157-.6447949h-.024748c-.2534542.4906233-.6852651.735935-1.292019.735935-.4847205 0-.8883697-.1899462-1.2083876-.5698386-.320018-.3798923-.4796002-.873071-.4796002-1.4786841 0-.6499055.1732363-1.1763034.5214158-1.578342.3370856-.3747817.750122-.5621725 1.2416695-.5621725.5401903 0 .9182381.1814284 1.1332901.545137h.0170676V9.2248939h.8951968v4.7759112c0 .3909655.0102406.751267.0315751 1.0817563zm-.9267719-1.6933319v-.6694964c0-.1158416-.0085338-.209537-.024748-.2810862-.0503495-.2146477-.1587289-.3952243-.3234314-.5408781-.1664094-.1456538-.3669539-.2189066-.5982202-.2189066-.333672 0-.5948066.1320254-.7868174.3969279-.190304.2649025-.286736.6030578-.286736 1.0161694 0 .3969279.0913118.7188994.2747887.9667664.1937175.2640508.4548521.3960761.7816971.3960761.2935631 0 .5282429-.1098792.7065995-.3304893.172383-.2035746.2568677-.4488862.2568677-.7350832zM96.8945875 13.0417047c0 .617538-.1766499 1.1234933-.5299497 1.5204212-.3703674.408001-.8602081.6115755-1.4737891.6115755-.5896864 0-1.0598994-.1950568-1.4114924-.586874-.3498862-.3909655-.5248293-.884144-.5248293-1.4786841 0-.621797.1800634-1.132011.5418969-1.5280872.3618336-.3960761.8482609-.59454 1.4618419-.59454.5896863 0 1.0650196.1950568 1.4234396.5860222.3413525.3798924.5128821.8705157.5128821 1.4701664zm-.9267719.0289604c0-.3705228-.0802178-.6882355-.2398001-.953138-.1885972-.320268-.4548521-.480402-.8030316-.480402-.3584201 0-.631502.160134-.8200992.480402-.1604357.2649025-.2398001.5877258-.2398001.9693217 0 .3705229.0802178.6882355.2398001.953138.1937175.320268.4633859.480402.8115654.480402.3413524 0 .6101675-.1626893.8030316-.4889197.1647026-.2700132.2483339-.5902812.2483339-.960804zM101.7033899 15.0825614h-.89349v-2.2997968c0-.708678-.2696684-1.0630171-.8115654-1.0630171-.2654015 0-.4796002.0971025-.6451561.2921593-.1655559.1950569-.2483339.4250365-.2483339.6882355v2.3815673h-.8951968v-2.86708c0-.3526355-.0102405-.7350831-.0315751-1.1490466h.7851106l.0418157.6277594h.0247481c.1049658-.1950569.2602812-.3560426.4633859-.4846609.2432136-.1499127.5137354-.2257208.8115654-.2257208.3746343 0 .6869718.1209523.9353057.3637086.3097773.29727.4633859.7410456.4633859 1.330475v2.405417zM107.7222868 11.7359312h-.9848018v1.9505684c0 .495734.1749432.743601.5214159.743601.1604356 0 .2935631-.0136285.3985289-.0417372l.0230413.6771624c-.1766498.0664386-.4087695.0996579-.6946522.0996579-.3532997 0-.6280885-.1073239-.8269263-.3219716-.1996911-.2146477-.2986833-.575801-.2986833-1.082608v-2.0246729h-.5879796v-.6686446h.5879796v-.735935l.8764223-.2640507v.999134h.9848018v.6694963h.0008534zM112.4568451 15.0825614h-.8951967v-2.2827612c0-.7197513-.2696685-1.0800527-.8098587-1.0800527-.4147432 0-.6980657.2086852-.8533811.6260557-.0264548.087733-.0418157.1950569-.0418157.3211198v2.4147866h-.89349V9.2248939h.89349v2.4198972h.0170677c.2816157-.4403685.685265-.6601268 1.2083876-.6601268.3703674 0 .6767312.1209522.9199448.3637086.3029503.3023807.4548521.7521187.4548521 1.3466587v2.3875298zM117.3407451 12.8849778c0 .160134-.0119473.2947147-.0332818.4045939h-2.6821768c.0119473.3969279.1399545.6993085.3882884.9088456.2269994.1873908.5197091.2810863.8781291.2810863.3968223 0 .7586558-.0630315 1.0846474-.1899462l.1399545.6200933c-.3814613.1652447-.8303398.247867-1.3500489.247867-.6229682 0-1.1136623-.183132-1.4686688-.5493959-.3567133-.366264-.5333632-.857739-.5333632-1.4744252 0-.6056132.1647025-1.109865.4966678-1.5119034.3464727-.4292954.8149789-.6439431 1.406372-.6439431.5785924 0 1.0180837.2146477 1.3150603.643943.2398001.3407107.35842.76234.35842 1.2631847zm-.8533811-.2308314c.0068271-.2649026-.0520562-.4931787-.1732363-.6856802-.1553154-.247867-.3917019-.3722263-.7117198-.3722263-.2918564 0-.5299497.1209522-.7117199.3637086-.1484883.1933532-.2363865.4241847-.2654015.6941979h1.8620775z"/></g></g></g></svg>
