<svg xmlns="http://www.w3.org/2000/svg" width="32" height="32" viewBox="0 0 32 32">
    <g fill="none" fill-rule="evenodd">
        <rect width="32" height="32" fill="#1DA1F2" rx="8"/>
        <path fill="#FFF" fill-rule="nonzero" d="M22.225 12.998c.01.131.01.262.01.392 0 3.994-3.04 8.596-8.595 8.596-1.712 0-3.302-.496-4.64-1.357.243.028.477.037.73.037 1.412 0 2.712-.476 3.75-1.29-1.328-.028-2.44-.898-2.825-2.095.187.028.374.046.571.046.27 0 .543-.037.796-.102-1.386-.28-2.423-1.497-2.423-2.965v-.037c.403.224.87.364 1.365.383-.814-.542-1.347-1.468-1.347-2.516 0-.56.15-1.075.411-1.524 1.487 1.832 3.723 3.03 6.23 3.161-.047-.225-.075-.458-.075-.692 0-1.665 1.347-3.02 3.02-3.02.87 0 1.656.364 2.208.953.683-.131 1.337-.384 1.917-.73-.224.702-.702 1.291-1.328 1.666.608-.066 1.198-.234 1.739-.468-.411.598-.925 1.131-1.514 1.562z"/>
    </g>
</svg>
