<svg xmlns="http://www.w3.org/2000/svg" width="32" height="32" viewBox="0 0 32 32">
    <g fill="none" fill-rule="evenodd">
        <rect width="32" height="32" fill="#C13584" rx="8"/>
        <path fill="#FFF" fill-rule="nonzero" d="M16.688 8.999c1.283.002 1.548.013 2.194.042.582.013 1.157.122 1.7.326.94.363 1.682 1.106 2.047 2.044.209.55.317 1.133.326 1.72.036.608.042.88.044 1.996V16.7c-.002 1.282-.014 1.546-.043 2.191-.011.581-.12 1.154-.325 1.698-.365.937-1.107 1.68-2.047 2.044-.545.204-1.12.313-1.7.325-.608.035-.881.042-2 .043H15.52c-1.468-.002-1.725-.013-2.406-.043-.583-.019-1.158-.138-1.699-.35-.94-.363-1.683-1.105-2.048-2.043-.204-.544-.314-1.117-.326-1.697-.037-.641-.042-.91-.043-2.191v-.937c0-1.67.011-1.918.043-2.632.011-.58.122-1.153.326-1.696.364-.938 1.107-1.68 2.047-2.044.544-.204 1.118-.313 1.7-.326.573-.033.849-.04 1.82-.042zm-.694 3.395c-1.986 0-3.594 1.607-3.594 3.59 0 1.982 1.608 3.588 3.594 3.588 1.984 0 3.594-1.606 3.594-3.589 0-1.982-1.61-3.589-3.594-3.589zm0 1.258c1.29 0 2.335 1.044 2.335 2.331s-1.046 2.331-2.335 2.331c-1.29 0-2.335-1.044-2.335-2.33 0-1.288 1.045-2.332 2.335-2.332zm3.737-2.227c-.464 0-.838.374-.838.837 0 .462.374.837.838.837.463 0 .838-.375.838-.837 0-.463-.375-.837-.838-.837z"/>
    </g>
</svg>
